<svg xmlns="http://www.w3.org/2000/svg" xml:space="preserve" xmlns:xlink="http://www.w3.org/1999/xlink" style="width: 290px!important;height: 290px!important;" width="999" height="999" viewBox="0 0 999 999"><defs><mask id="qrmask"><g fill="#ffffff"><g transform="translate(270,54) scale(4.5)"><rect width="6" height="6"></rect></g><g transform="translate(297,54) scale(4.5)"><rect width="6" height="6"></rect></g><g transform="translate(324,54) scale(4.5)"><rect width="6" height="6"></rect></g><g transform="translate(405,54) scale(4.5)"><rect width="6" height="6"></rect></g><g transform="translate(432,54) scale(4.5)"><rect width="6" height="6"></rect></g><g transform="translate(621,54) scale(4.5)"><rect width="6" height="6"></rect></g><g transform="translate(675,54) scale(4.5)"><rect width="6" height="6"></rect></g><g transform="translate(702,54) scale(4.5)"><rect width="6" height="6"></rect></g><g transform="translate(270,81) scale(4.5)"><rect width="6" height="6"></rect></g><g transform="translate(297,81) scale(4.5)"><rect width="6" height="6"></rect></g><g transform="translate(351,81) scale(4.5)"><rect width="6" height="6"></rect></g><g transform="translate(432,81) scale(4.5)"><rect width="6" height="6"></rect></g><g transform="translate(486,81) scale(4.5)"><rect width="6" height="6"></rect></g><g transform="translate(513,81) scale(4.5)"><rect width="6" height="6"></rect></g><g transform="translate(540,81) scale(4.5)"><rect width="6" height="6"></rect></g><g transform="translate(567,81) scale(4.5)"><rect width="6" height="6"></rect></g><g transform="translate(621,81) scale(4.5)"><rect width="6" height="6"></rect></g><g transform="translate(648,81) scale(4.5)"><rect width="6" height="6"></rect></g><g transform="translate(702,81) scale(4.5)"><rect width="6" height="6"></rect></g><g transform="translate(270,108) scale(4.5)"><rect width="6" height="6"></rect></g><g transform="translate(324,108) scale(4.5)"><rect width="6" height="6"></rect></g><g transform="translate(351,108) scale(4.5)"><rect width="6" height="6"></rect></g><g transform="translate(378,108) scale(4.5)"><rect width="6" height="6"></rect></g><g transform="translate(459,108) scale(4.5)"><rect width="6" height="6"></rect></g><g transform="translate(486,108) scale(4.5)"><rect width="6" height="6"></rect></g><g transform="translate(513,108) scale(4.5)"><rect width="6" height="6"></rect></g><g transform="translate(540,108) scale(4.5)"><rect width="6" height="6"></rect></g><g transform="translate(621,108) scale(4.5)"><rect width="6" height="6"></rect></g><g transform="translate(675,108) scale(4.5)"><rect width="6" height="6"></rect></g><g transform="translate(702,108) scale(4.5)"><rect width="6" height="6"></rect></g><g transform="translate(297,135) scale(4.5)"><rect width="6" height="6"></rect></g><g transform="translate(324,135) scale(4.5)"><rect width="6" height="6"></rect></g><g transform="translate(378,135) scale(4.5)"><rect width="6" height="6"></rect></g><g transform="translate(405,135) scale(4.5)"><rect width="6" height="6"></rect></g><g transform="translate(486,135) scale(4.5)"><rect width="6" height="6"></rect></g><g transform="translate(513,135) scale(4.5)"><rect width="6" height="6"></rect></g><g transform="translate(540,135) scale(4.5)"><rect width="6" height="6"></rect></g><g transform="translate(648,135) scale(4.5)"><rect width="6" height="6"></rect></g><g transform="translate(675,135) scale(4.5)"><rect width="6" height="6"></rect></g><g transform="translate(702,135) scale(4.5)"><rect width="6" height="6"></rect></g><g transform="translate(405,162) scale(4.5)"><rect width="6" height="6"></rect></g><g transform="translate(459,162) scale(4.5)"><rect width="6" height="6"></rect></g><g transform="translate(567,162) scale(4.5)"><rect width="6" height="6"></rect></g><g transform="translate(270,189) scale(4.5)"><rect width="6" height="6"></rect></g><g transform="translate(324,189) scale(4.5)"><rect width="6" height="6"></rect></g><g transform="translate(351,189) scale(4.5)"><rect width="6" height="6"></rect></g><g transform="translate(378,189) scale(4.5)"><rect width="6" height="6"></rect></g><g transform="translate(405,189) scale(4.5)"><rect width="6" height="6"></rect></g><g transform="translate(486,189) scale(4.5)"><rect width="6" height="6"></rect></g><g transform="translate(540,189) scale(4.5)"><rect width="6" height="6"></rect></g><g transform="translate(567,189) scale(4.5)"><rect width="6" height="6"></rect></g><g transform="translate(648,189) scale(4.5)"><rect width="6" height="6"></rect></g><g transform="translate(675,189) scale(4.5)"><rect width="6" height="6"></rect></g><g transform="translate(702,189) scale(4.5)"><rect width="6" height="6"></rect></g><g transform="translate(270,216) scale(4.5)"><rect width="6" height="6"></rect></g><g transform="translate(324,216) scale(4.5)"><rect width="6" height="6"></rect></g><g transform="translate(378,216) scale(4.5)"><rect width="6" height="6"></rect></g><g transform="translate(432,216) scale(4.5)"><rect width="6" height="6"></rect></g><g transform="translate(486,216) scale(4.5)"><rect width="6" height="6"></rect></g><g transform="translate(540,216) scale(4.5)"><rect width="6" height="6"></rect></g><g transform="translate(594,216) scale(4.5)"><rect width="6" height="6"></rect></g><g transform="translate(648,216) scale(4.5)"><rect width="6" height="6"></rect></g><g transform="translate(702,216) scale(4.5)"><rect width="6" height="6"></rect></g><g transform="translate(270,243) scale(4.5)"><rect width="6" height="6"></rect></g><g transform="translate(297,243) scale(4.5)"><rect width="6" height="6"></rect></g><g transform="translate(324,243) scale(4.5)"><rect width="6" height="6"></rect></g><g transform="translate(351,243) scale(4.5)"><rect width="6" height="6"></rect></g><g transform="translate(378,243) scale(4.5)"><rect width="6" height="6"></rect></g><g transform="translate(405,243) scale(4.5)"><rect width="6" height="6"></rect></g><g transform="translate(486,243) scale(4.5)"><rect width="6" height="6"></rect></g><g transform="translate(513,243) scale(4.5)"><rect width="6" height="6"></rect></g><g transform="translate(621,243) scale(4.5)"><rect width="6" height="6"></rect></g><g transform="translate(675,243) scale(4.5)"><rect width="6" height="6"></rect></g><g transform="translate(108,270) scale(4.5)"><rect width="6" height="6"></rect></g><g transform="translate(135,270) scale(4.5)"><rect width="6" height="6"></rect></g><g transform="translate(162,270) scale(4.5)"><rect width="6" height="6"></rect></g><g transform="translate(216,270) scale(4.5)"><rect width="6" height="6"></rect></g><g transform="translate(270,270) scale(4.5)"><rect width="6" height="6"></rect></g><g transform="translate(324,270) scale(4.5)"><rect width="6" height="6"></rect></g><g transform="translate(351,270) scale(4.5)"><rect width="6" height="6"></rect></g><g transform="translate(405,270) scale(4.5)"><rect width="6" height="6"></rect></g><g transform="translate(513,270) scale(4.5)"><rect width="6" height="6"></rect></g><g transform="translate(648,270) scale(4.5)"><rect width="6" height="6"></rect></g><g transform="translate(675,270) scale(4.5)"><rect width="6" height="6"></rect></g><g transform="translate(702,270) scale(4.5)"><rect width="6" height="6"></rect></g><g transform="translate(729,270) scale(4.5)"><rect width="6" height="6"></rect></g><g transform="translate(756,270) scale(4.5)"><rect width="6" height="6"></rect></g><g transform="translate(783,270) scale(4.5)"><rect width="6" height="6"></rect></g><g transform="translate(864,270) scale(4.5)"><rect width="6" height="6"></rect></g><g transform="translate(891,270) scale(4.5)"><rect width="6" height="6"></rect></g><g transform="translate(918,270) scale(4.5)"><rect width="6" height="6"></rect></g><g transform="translate(54,297) scale(4.5)"><rect width="6" height="6"></rect></g><g transform="translate(81,297) scale(4.5)"><rect width="6" height="6"></rect></g><g transform="translate(108,297) scale(4.5)"><rect width="6" height="6"></rect></g><g transform="translate(189,297) scale(4.5)"><rect width="6" height="6"></rect></g><g transform="translate(324,297) scale(4.5)"><rect width="6" height="6"></rect></g><g transform="translate(459,297) scale(4.5)"><rect width="6" height="6"></rect></g><g transform="translate(486,297) scale(4.5)"><rect width="6" height="6"></rect></g><g transform="translate(621,297) scale(4.5)"><rect width="6" height="6"></rect></g><g transform="translate(675,297) scale(4.5)"><rect width="6" height="6"></rect></g><g transform="translate(702,297) scale(4.5)"><rect width="6" height="6"></rect></g><g transform="translate(729,297) scale(4.5)"><rect width="6" height="6"></rect></g><g transform="translate(756,297) scale(4.5)"><rect width="6" height="6"></rect></g><g transform="translate(918,297) scale(4.5)"><rect width="6" height="6"></rect></g><g transform="translate(108,324) scale(4.5)"><rect width="6" height="6"></rect></g><g transform="translate(135,324) scale(4.5)"><rect width="6" height="6"></rect></g><g transform="translate(189,324) scale(4.5)"><rect width="6" height="6"></rect></g><g transform="translate(216,324) scale(4.5)"><rect width="6" height="6"></rect></g><g transform="translate(297,324) scale(4.5)"><rect width="6" height="6"></rect></g><g transform="translate(324,324) scale(4.5)"><rect width="6" height="6"></rect></g><g transform="translate(351,324) scale(4.5)"><rect width="6" height="6"></rect></g><g transform="translate(405,324) scale(4.5)"><rect width="6" height="6"></rect></g><g transform="translate(432,324) scale(4.5)"><rect width="6" height="6"></rect></g><g transform="translate(486,324) scale(4.5)"><rect width="6" height="6"></rect></g><g transform="translate(567,324) scale(4.5)"><rect width="6" height="6"></rect></g><g transform="translate(594,324) scale(4.5)"><rect width="6" height="6"></rect></g><g transform="translate(621,324) scale(4.5)"><rect width="6" height="6"></rect></g><g transform="translate(702,324) scale(4.5)"><rect width="6" height="6"></rect></g><g transform="translate(729,324) scale(4.5)"><rect width="6" height="6"></rect></g><g transform="translate(783,324) scale(4.5)"><rect width="6" height="6"></rect></g><g transform="translate(837,324) scale(4.5)"><rect width="6" height="6"></rect></g><g transform="translate(891,324) scale(4.5)"><rect width="6" height="6"></rect></g><g transform="translate(81,351) scale(4.5)"><rect width="6" height="6"></rect></g><g transform="translate(108,351) scale(4.5)"><rect width="6" height="6"></rect></g><g transform="translate(162,351) scale(4.5)"><rect width="6" height="6"></rect></g><g transform="translate(189,351) scale(4.5)"><rect width="6" height="6"></rect></g><g transform="translate(324,351) scale(4.5)"><rect width="6" height="6"></rect></g><g transform="translate(486,351) scale(4.5)"><rect width="6" height="6"></rect></g><g transform="translate(513,351) scale(4.5)"><rect width="6" height="6"></rect></g><g transform="translate(540,351) scale(4.5)"><rect width="6" height="6"></rect></g><g transform="translate(567,351) scale(4.5)"><rect width="6" height="6"></rect></g><g transform="translate(594,351) scale(4.5)"><rect width="6" height="6"></rect></g><g transform="translate(621,351) scale(4.5)"><rect width="6" height="6"></rect></g><g transform="translate(648,351) scale(4.5)"><rect width="6" height="6"></rect></g><g transform="translate(675,351) scale(4.5)"><rect width="6" height="6"></rect></g><g transform="translate(702,351) scale(4.5)"><rect width="6" height="6"></rect></g><g transform="translate(837,351) scale(4.5)"><rect width="6" height="6"></rect></g><g transform="translate(864,351) scale(4.5)"><rect width="6" height="6"></rect></g><g transform="translate(918,351) scale(4.5)"><rect width="6" height="6"></rect></g><g transform="translate(54,378) scale(4.5)"><rect width="6" height="6"></rect></g><g transform="translate(108,378) scale(4.5)"><rect width="6" height="6"></rect></g><g transform="translate(135,378) scale(4.5)"><rect width="6" height="6"></rect></g><g transform="translate(162,378) scale(4.5)"><rect width="6" height="6"></rect></g><g transform="translate(189,378) scale(4.5)"><rect width="6" height="6"></rect></g><g transform="translate(216,378) scale(4.5)"><rect width="6" height="6"></rect></g><g transform="translate(243,378) scale(4.5)"><rect width="6" height="6"></rect></g><g transform="translate(270,378) scale(4.5)"><rect width="6" height="6"></rect></g><g transform="translate(405,378) scale(4.5)"><rect width="6" height="6"></rect></g><g transform="translate(432,378) scale(4.5)"><rect width="6" height="6"></rect></g><g transform="translate(459,378) scale(4.5)"><rect width="6" height="6"></rect></g><g transform="translate(513,378) scale(4.5)"><rect width="6" height="6"></rect></g><g transform="translate(567,378) scale(4.5)"><rect width="6" height="6"></rect></g><g transform="translate(594,378) scale(4.5)"><rect width="6" height="6"></rect></g><g transform="translate(621,378) scale(4.5)"><rect width="6" height="6"></rect></g><g transform="translate(675,378) scale(4.5)"><rect width="6" height="6"></rect></g><g transform="translate(891,378) scale(4.5)"><rect width="6" height="6"></rect></g><g transform="translate(135,405) scale(4.5)"><rect width="6" height="6"></rect></g><g transform="translate(162,405) scale(4.5)"><rect width="6" height="6"></rect></g><g transform="translate(189,405) scale(4.5)"><rect width="6" height="6"></rect></g><g transform="translate(324,405) scale(4.5)"><rect width="6" height="6"></rect></g><g transform="translate(486,405) scale(4.5)"><rect width="6" height="6"></rect></g><g transform="translate(567,405) scale(4.5)"><rect width="6" height="6"></rect></g><g transform="translate(648,405) scale(4.5)"><rect width="6" height="6"></rect></g><g transform="translate(675,405) scale(4.5)"><rect width="6" height="6"></rect></g><g transform="translate(756,405) scale(4.5)"><rect width="6" height="6"></rect></g><g transform="translate(783,405) scale(4.5)"><rect width="6" height="6"></rect></g><g transform="translate(837,405) scale(4.5)"><rect width="6" height="6"></rect></g><g transform="translate(918,405) scale(4.5)"><rect width="6" height="6"></rect></g><g transform="translate(54,432) scale(4.5)"><rect width="6" height="6"></rect></g><g transform="translate(189,432) scale(4.5)"><rect width="6" height="6"></rect></g><g transform="translate(216,432) scale(4.5)"><rect width="6" height="6"></rect></g><g transform="translate(270,432) scale(4.5)"><rect width="6" height="6"></rect></g><g transform="translate(351,432) scale(4.5)"><rect width="6" height="6"></rect></g><g transform="translate(432,432) scale(4.5)"><rect width="6" height="6"></rect></g><g transform="translate(459,432) scale(4.5)"><rect width="6" height="6"></rect></g><g transform="translate(486,432) scale(4.5)"><rect width="6" height="6"></rect></g><g transform="translate(540,432) scale(4.5)"><rect width="6" height="6"></rect></g><g transform="translate(567,432) scale(4.5)"><rect width="6" height="6"></rect></g><g transform="translate(648,432) scale(4.5)"><rect width="6" height="6"></rect></g><g transform="translate(756,432) scale(4.5)"><rect width="6" height="6"></rect></g><g transform="translate(837,432) scale(4.5)"><rect width="6" height="6"></rect></g><g transform="translate(891,432) scale(4.5)"><rect width="6" height="6"></rect></g><g transform="translate(54,459) scale(4.5)"><rect width="6" height="6"></rect></g><g transform="translate(81,459) scale(4.5)"><rect width="6" height="6"></rect></g><g transform="translate(108,459) scale(4.5)"><rect width="6" height="6"></rect></g><g transform="translate(189,459) scale(4.5)"><rect width="6" height="6"></rect></g><g transform="translate(243,459) scale(4.5)"><rect width="6" height="6"></rect></g><g transform="translate(270,459) scale(4.5)"><rect width="6" height="6"></rect></g><g transform="translate(324,459) scale(4.5)"><rect width="6" height="6"></rect></g><g transform="translate(378,459) scale(4.5)"><rect width="6" height="6"></rect></g><g transform="translate(432,459) scale(4.5)"><rect width="6" height="6"></rect></g><g transform="translate(513,459) scale(4.5)"><rect width="6" height="6"></rect></g><g transform="translate(540,459) scale(4.5)"><rect width="6" height="6"></rect></g><g transform="translate(594,459) scale(4.5)"><rect width="6" height="6"></rect></g><g transform="translate(621,459) scale(4.5)"><rect width="6" height="6"></rect></g><g transform="translate(648,459) scale(4.5)"><rect width="6" height="6"></rect></g><g transform="translate(675,459) scale(4.5)"><rect width="6" height="6"></rect></g><g transform="translate(702,459) scale(4.5)"><rect width="6" height="6"></rect></g><g transform="translate(729,459) scale(4.5)"><rect width="6" height="6"></rect></g><g transform="translate(783,459) scale(4.5)"><rect width="6" height="6"></rect></g><g transform="translate(864,459) scale(4.5)"><rect width="6" height="6"></rect></g><g transform="translate(891,459) scale(4.5)"><rect width="6" height="6"></rect></g><g transform="translate(918,459) scale(4.5)"><rect width="6" height="6"></rect></g><g transform="translate(54,486) scale(4.5)"><rect width="6" height="6"></rect></g><g transform="translate(108,486) scale(4.5)"><rect width="6" height="6"></rect></g><g transform="translate(216,486) scale(4.5)"><rect width="6" height="6"></rect></g><g transform="translate(243,486) scale(4.5)"><rect width="6" height="6"></rect></g><g transform="translate(270,486) scale(4.5)"><rect width="6" height="6"></rect></g><g transform="translate(297,486) scale(4.5)"><rect width="6" height="6"></rect></g><g transform="translate(324,486) scale(4.5)"><rect width="6" height="6"></rect></g><g transform="translate(378,486) scale(4.5)"><rect width="6" height="6"></rect></g><g transform="translate(432,486) scale(4.5)"><rect width="6" height="6"></rect></g><g transform="translate(513,486) scale(4.5)"><rect width="6" height="6"></rect></g><g transform="translate(594,486) scale(4.5)"><rect width="6" height="6"></rect></g><g transform="translate(729,486) scale(4.5)"><rect width="6" height="6"></rect></g><g transform="translate(783,486) scale(4.5)"><rect width="6" height="6"></rect></g><g transform="translate(810,486) scale(4.5)"><rect width="6" height="6"></rect></g><g transform="translate(864,486) scale(4.5)"><rect width="6" height="6"></rect></g><g transform="translate(918,486) scale(4.5)"><rect width="6" height="6"></rect></g><g transform="translate(54,513) scale(4.5)"><rect width="6" height="6"></rect></g><g transform="translate(81,513) scale(4.5)"><rect width="6" height="6"></rect></g><g transform="translate(108,513) scale(4.5)"><rect width="6" height="6"></rect></g><g transform="translate(135,513) scale(4.5)"><rect width="6" height="6"></rect></g><g transform="translate(270,513) scale(4.5)"><rect width="6" height="6"></rect></g><g transform="translate(351,513) scale(4.5)"><rect width="6" height="6"></rect></g><g transform="translate(378,513) scale(4.5)"><rect width="6" height="6"></rect></g><g transform="translate(432,513) scale(4.5)"><rect width="6" height="6"></rect></g><g transform="translate(459,513) scale(4.5)"><rect width="6" height="6"></rect></g><g transform="translate(513,513) scale(4.5)"><rect width="6" height="6"></rect></g><g transform="translate(540,513) scale(4.5)"><rect width="6" height="6"></rect></g><g transform="translate(594,513) scale(4.5)"><rect width="6" height="6"></rect></g><g transform="translate(621,513) scale(4.5)"><rect width="6" height="6"></rect></g><g transform="translate(675,513) scale(4.5)"><rect width="6" height="6"></rect></g><g transform="translate(702,513) scale(4.5)"><rect width="6" height="6"></rect></g><g transform="translate(729,513) scale(4.5)"><rect width="6" height="6"></rect></g><g transform="translate(756,513) scale(4.5)"><rect width="6" height="6"></rect></g><g transform="translate(918,513) scale(4.5)"><rect width="6" height="6"></rect></g><g transform="translate(135,540) scale(4.5)"><rect width="6" height="6"></rect></g><g transform="translate(162,540) scale(4.5)"><rect width="6" height="6"></rect></g><g transform="translate(216,540) scale(4.5)"><rect width="6" height="6"></rect></g><g transform="translate(324,540) scale(4.5)"><rect width="6" height="6"></rect></g><g transform="translate(351,540) scale(4.5)"><rect width="6" height="6"></rect></g><g transform="translate(459,540) scale(4.5)"><rect width="6" height="6"></rect></g><g transform="translate(486,540) scale(4.5)"><rect width="6" height="6"></rect></g><g transform="translate(540,540) scale(4.5)"><rect width="6" height="6"></rect></g><g transform="translate(567,540) scale(4.5)"><rect width="6" height="6"></rect></g><g transform="translate(594,540) scale(4.5)"><rect width="6" height="6"></rect></g><g transform="translate(621,540) scale(4.5)"><rect width="6" height="6"></rect></g><g transform="translate(729,540) scale(4.5)"><rect width="6" height="6"></rect></g><g transform="translate(756,540) scale(4.5)"><rect width="6" height="6"></rect></g><g transform="translate(783,540) scale(4.5)"><rect width="6" height="6"></rect></g><g transform="translate(864,540) scale(4.5)"><rect width="6" height="6"></rect></g><g transform="translate(81,567) scale(4.5)"><rect width="6" height="6"></rect></g><g transform="translate(108,567) scale(4.5)"><rect width="6" height="6"></rect></g><g transform="translate(162,567) scale(4.5)"><rect width="6" height="6"></rect></g><g transform="translate(243,567) scale(4.5)"><rect width="6" height="6"></rect></g><g transform="translate(270,567) scale(4.5)"><rect width="6" height="6"></rect></g><g transform="translate(378,567) scale(4.5)"><rect width="6" height="6"></rect></g><g transform="translate(459,567) scale(4.5)"><rect width="6" height="6"></rect></g><g transform="translate(486,567) scale(4.5)"><rect width="6" height="6"></rect></g><g transform="translate(513,567) scale(4.5)"><rect width="6" height="6"></rect></g><g transform="translate(540,567) scale(4.5)"><rect width="6" height="6"></rect></g><g transform="translate(621,567) scale(4.5)"><rect width="6" height="6"></rect></g><g transform="translate(648,567) scale(4.5)"><rect width="6" height="6"></rect></g><g transform="translate(675,567) scale(4.5)"><rect width="6" height="6"></rect></g><g transform="translate(702,567) scale(4.5)"><rect width="6" height="6"></rect></g><g transform="translate(756,567) scale(4.5)"><rect width="6" height="6"></rect></g><g transform="translate(810,567) scale(4.5)"><rect width="6" height="6"></rect></g><g transform="translate(837,567) scale(4.5)"><rect width="6" height="6"></rect></g><g transform="translate(864,567) scale(4.5)"><rect width="6" height="6"></rect></g><g transform="translate(891,567) scale(4.5)"><rect width="6" height="6"></rect></g><g transform="translate(918,567) scale(4.5)"><rect width="6" height="6"></rect></g><g transform="translate(54,594) scale(4.5)"><rect width="6" height="6"></rect></g><g transform="translate(108,594) scale(4.5)"><rect width="6" height="6"></rect></g><g transform="translate(189,594) scale(4.5)"><rect width="6" height="6"></rect></g><g transform="translate(216,594) scale(4.5)"><rect width="6" height="6"></rect></g><g transform="translate(270,594) scale(4.5)"><rect width="6" height="6"></rect></g><g transform="translate(297,594) scale(4.5)"><rect width="6" height="6"></rect></g><g transform="translate(459,594) scale(4.5)"><rect width="6" height="6"></rect></g><g transform="translate(567,594) scale(4.5)"><rect width="6" height="6"></rect></g><g transform="translate(648,594) scale(4.5)"><rect width="6" height="6"></rect></g><g transform="translate(729,594) scale(4.5)"><rect width="6" height="6"></rect></g><g transform="translate(756,594) scale(4.5)"><rect width="6" height="6"></rect></g><g transform="translate(783,594) scale(4.5)"><rect width="6" height="6"></rect></g><g transform="translate(810,594) scale(4.5)"><rect width="6" height="6"></rect></g><g transform="translate(837,594) scale(4.5)"><rect width="6" height="6"></rect></g><g transform="translate(891,594) scale(4.5)"><rect width="6" height="6"></rect></g><g transform="translate(918,594) scale(4.5)"><rect width="6" height="6"></rect></g><g transform="translate(54,621) scale(4.5)"><rect width="6" height="6"></rect></g><g transform="translate(81,621) scale(4.5)"><rect width="6" height="6"></rect></g><g transform="translate(162,621) scale(4.5)"><rect width="6" height="6"></rect></g><g transform="translate(189,621) scale(4.5)"><rect width="6" height="6"></rect></g><g transform="translate(243,621) scale(4.5)"><rect width="6" height="6"></rect></g><g transform="translate(270,621) scale(4.5)"><rect width="6" height="6"></rect></g><g transform="translate(297,621) scale(4.5)"><rect width="6" height="6"></rect></g><g transform="translate(324,621) scale(4.5)"><rect width="6" height="6"></rect></g><g transform="translate(351,621) scale(4.5)"><rect width="6" height="6"></rect></g><g transform="translate(378,621) scale(4.5)"><rect width="6" height="6"></rect></g><g transform="translate(405,621) scale(4.5)"><rect width="6" height="6"></rect></g><g transform="translate(459,621) scale(4.5)"><rect width="6" height="6"></rect></g><g transform="translate(486,621) scale(4.5)"><rect width="6" height="6"></rect></g><g transform="translate(513,621) scale(4.5)"><rect width="6" height="6"></rect></g><g transform="translate(567,621) scale(4.5)"><rect width="6" height="6"></rect></g><g transform="translate(702,621) scale(4.5)"><rect width="6" height="6"></rect></g><g transform="translate(837,621) scale(4.5)"><rect width="6" height="6"></rect></g><g transform="translate(864,621) scale(4.5)"><rect width="6" height="6"></rect></g><g transform="translate(918,621) scale(4.5)"><rect width="6" height="6"></rect></g><g transform="translate(54,648) scale(4.5)"><rect width="6" height="6"></rect></g><g transform="translate(108,648) scale(4.5)"><rect width="6" height="6"></rect></g><g transform="translate(135,648) scale(4.5)"><rect width="6" height="6"></rect></g><g transform="translate(216,648) scale(4.5)"><rect width="6" height="6"></rect></g><g transform="translate(243,648) scale(4.5)"><rect width="6" height="6"></rect></g><g transform="translate(270,648) scale(4.5)"><rect width="6" height="6"></rect></g><g transform="translate(297,648) scale(4.5)"><rect width="6" height="6"></rect></g><g transform="translate(324,648) scale(4.5)"><rect width="6" height="6"></rect></g><g transform="translate(432,648) scale(4.5)"><rect width="6" height="6"></rect></g><g transform="translate(513,648) scale(4.5)"><rect width="6" height="6"></rect></g><g transform="translate(540,648) scale(4.5)"><rect width="6" height="6"></rect></g><g transform="translate(621,648) scale(4.5)"><rect width="6" height="6"></rect></g><g transform="translate(783,648) scale(4.5)"><rect width="6" height="6"></rect></g><g transform="translate(837,648) scale(4.5)"><rect width="6" height="6"></rect></g><g transform="translate(891,648) scale(4.5)"><rect width="6" height="6"></rect></g><g transform="translate(54,675) scale(4.5)"><rect width="6" height="6"></rect></g><g transform="translate(108,675) scale(4.5)"><rect width="6" height="6"></rect></g><g transform="translate(189,675) scale(4.5)"><rect width="6" height="6"></rect></g><g transform="translate(270,675) scale(4.5)"><rect width="6" height="6"></rect></g><g transform="translate(324,675) scale(4.5)"><rect width="6" height="6"></rect></g><g transform="translate(378,675) scale(4.5)"><rect width="6" height="6"></rect></g><g transform="translate(405,675) scale(4.5)"><rect width="6" height="6"></rect></g><g transform="translate(432,675) scale(4.5)"><rect width="6" height="6"></rect></g><g transform="translate(459,675) scale(4.5)"><rect width="6" height="6"></rect></g><g transform="translate(486,675) scale(4.5)"><rect width="6" height="6"></rect></g><g transform="translate(621,675) scale(4.5)"><rect width="6" height="6"></rect></g><g transform="translate(648,675) scale(4.5)"><rect width="6" height="6"></rect></g><g transform="translate(702,675) scale(4.5)"><rect width="6" height="6"></rect></g><g transform="translate(837,675) scale(4.5)"><rect width="6" height="6"></rect></g><g transform="translate(864,675) scale(4.5)"><rect width="6" height="6"></rect></g><g transform="translate(891,675) scale(4.5)"><rect width="6" height="6"></rect></g><g transform="translate(918,675) scale(4.5)"><rect width="6" height="6"></rect></g><g transform="translate(54,702) scale(4.5)"><rect width="6" height="6"></rect></g><g transform="translate(108,702) scale(4.5)"><rect width="6" height="6"></rect></g><g transform="translate(162,702) scale(4.5)"><rect width="6" height="6"></rect></g><g transform="translate(216,702) scale(4.5)"><rect width="6" height="6"></rect></g><g transform="translate(297,702) scale(4.5)"><rect width="6" height="6"></rect></g><g transform="translate(351,702) scale(4.5)"><rect width="6" height="6"></rect></g><g transform="translate(378,702) scale(4.5)"><rect width="6" height="6"></rect></g><g transform="translate(405,702) scale(4.5)"><rect width="6" height="6"></rect></g><g transform="translate(432,702) scale(4.5)"><rect width="6" height="6"></rect></g><g transform="translate(459,702) scale(4.5)"><rect width="6" height="6"></rect></g><g transform="translate(540,702) scale(4.5)"><rect width="6" height="6"></rect></g><g transform="translate(648,702) scale(4.5)"><rect width="6" height="6"></rect></g><g transform="translate(702,702) scale(4.5)"><rect width="6" height="6"></rect></g><g transform="translate(729,702) scale(4.5)"><rect width="6" height="6"></rect></g><g transform="translate(756,702) scale(4.5)"><rect width="6" height="6"></rect></g><g transform="translate(783,702) scale(4.5)"><rect width="6" height="6"></rect></g><g transform="translate(810,702) scale(4.5)"><rect width="6" height="6"></rect></g><g transform="translate(270,729) scale(4.5)"><rect width="6" height="6"></rect></g><g transform="translate(297,729) scale(4.5)"><rect width="6" height="6"></rect></g><g transform="translate(324,729) scale(4.5)"><rect width="6" height="6"></rect></g><g transform="translate(351,729) scale(4.5)"><rect width="6" height="6"></rect></g><g transform="translate(378,729) scale(4.5)"><rect width="6" height="6"></rect></g><g transform="translate(405,729) scale(4.5)"><rect width="6" height="6"></rect></g><g transform="translate(432,729) scale(4.5)"><rect width="6" height="6"></rect></g><g transform="translate(486,729) scale(4.5)"><rect width="6" height="6"></rect></g><g transform="translate(513,729) scale(4.5)"><rect width="6" height="6"></rect></g><g transform="translate(540,729) scale(4.5)"><rect width="6" height="6"></rect></g><g transform="translate(594,729) scale(4.5)"><rect width="6" height="6"></rect></g><g transform="translate(675,729) scale(4.5)"><rect width="6" height="6"></rect></g><g transform="translate(702,729) scale(4.5)"><rect width="6" height="6"></rect></g><g transform="translate(810,729) scale(4.5)"><rect width="6" height="6"></rect></g><g transform="translate(864,729) scale(4.5)"><rect width="6" height="6"></rect></g><g transform="translate(891,729) scale(4.5)"><rect width="6" height="6"></rect></g><g transform="translate(918,729) scale(4.5)"><rect width="6" height="6"></rect></g><g transform="translate(297,756) scale(4.5)"><rect width="6" height="6"></rect></g><g transform="translate(432,756) scale(4.5)"><rect width="6" height="6"></rect></g><g transform="translate(513,756) scale(4.5)"><rect width="6" height="6"></rect></g><g transform="translate(540,756) scale(4.5)"><rect width="6" height="6"></rect></g><g transform="translate(594,756) scale(4.5)"><rect width="6" height="6"></rect></g><g transform="translate(648,756) scale(4.5)"><rect width="6" height="6"></rect></g><g transform="translate(675,756) scale(4.5)"><rect width="6" height="6"></rect></g><g transform="translate(702,756) scale(4.5)"><rect width="6" height="6"></rect></g><g transform="translate(756,756) scale(4.5)"><rect width="6" height="6"></rect></g><g transform="translate(810,756) scale(4.5)"><rect width="6" height="6"></rect></g><g transform="translate(891,756) scale(4.5)"><rect width="6" height="6"></rect></g><g transform="translate(297,783) scale(4.5)"><rect width="6" height="6"></rect></g><g transform="translate(324,783) scale(4.5)"><rect width="6" height="6"></rect></g><g transform="translate(351,783) scale(4.5)"><rect width="6" height="6"></rect></g><g transform="translate(378,783) scale(4.5)"><rect width="6" height="6"></rect></g><g transform="translate(405,783) scale(4.5)"><rect width="6" height="6"></rect></g><g transform="translate(432,783) scale(4.5)"><rect width="6" height="6"></rect></g><g transform="translate(486,783) scale(4.5)"><rect width="6" height="6"></rect></g><g transform="translate(513,783) scale(4.5)"><rect width="6" height="6"></rect></g><g transform="translate(594,783) scale(4.5)"><rect width="6" height="6"></rect></g><g transform="translate(675,783) scale(4.5)"><rect width="6" height="6"></rect></g><g transform="translate(702,783) scale(4.5)"><rect width="6" height="6"></rect></g><g transform="translate(810,783) scale(4.5)"><rect width="6" height="6"></rect></g><g transform="translate(837,783) scale(4.5)"><rect width="6" height="6"></rect></g><g transform="translate(864,783) scale(4.5)"><rect width="6" height="6"></rect></g><g transform="translate(891,783) scale(4.5)"><rect width="6" height="6"></rect></g><g transform="translate(918,783) scale(4.5)"><rect width="6" height="6"></rect></g><g transform="translate(270,810) scale(4.5)"><rect width="6" height="6"></rect></g><g transform="translate(297,810) scale(4.5)"><rect width="6" height="6"></rect></g><g transform="translate(378,810) scale(4.5)"><rect width="6" height="6"></rect></g><g transform="translate(405,810) scale(4.5)"><rect width="6" height="6"></rect></g><g transform="translate(432,810) scale(4.5)"><rect width="6" height="6"></rect></g><g transform="translate(540,810) scale(4.5)"><rect width="6" height="6"></rect></g><g transform="translate(567,810) scale(4.5)"><rect width="6" height="6"></rect></g><g transform="translate(594,810) scale(4.5)"><rect width="6" height="6"></rect></g><g transform="translate(621,810) scale(4.5)"><rect width="6" height="6"></rect></g><g transform="translate(648,810) scale(4.5)"><rect width="6" height="6"></rect></g><g transform="translate(702,810) scale(4.5)"><rect width="6" height="6"></rect></g><g transform="translate(729,810) scale(4.5)"><rect width="6" height="6"></rect></g><g transform="translate(756,810) scale(4.5)"><rect width="6" height="6"></rect></g><g transform="translate(783,810) scale(4.5)"><rect width="6" height="6"></rect></g><g transform="translate(810,810) scale(4.5)"><rect width="6" height="6"></rect></g><g transform="translate(891,810) scale(4.5)"><rect width="6" height="6"></rect></g><g transform="translate(918,810) scale(4.5)"><rect width="6" height="6"></rect></g><g transform="translate(270,837) scale(4.5)"><rect width="6" height="6"></rect></g><g transform="translate(324,837) scale(4.5)"><rect width="6" height="6"></rect></g><g transform="translate(351,837) scale(4.5)"><rect width="6" height="6"></rect></g><g transform="translate(378,837) scale(4.5)"><rect width="6" height="6"></rect></g><g transform="translate(432,837) scale(4.5)"><rect width="6" height="6"></rect></g><g transform="translate(486,837) scale(4.5)"><rect width="6" height="6"></rect></g><g transform="translate(540,837) scale(4.5)"><rect width="6" height="6"></rect></g><g transform="translate(567,837) scale(4.5)"><rect width="6" height="6"></rect></g><g transform="translate(702,837) scale(4.5)"><rect width="6" height="6"></rect></g><g transform="translate(729,837) scale(4.5)"><rect width="6" height="6"></rect></g><g transform="translate(810,837) scale(4.5)"><rect width="6" height="6"></rect></g><g transform="translate(837,837) scale(4.5)"><rect width="6" height="6"></rect></g><g transform="translate(891,837) scale(4.5)"><rect width="6" height="6"></rect></g><g transform="translate(270,864) scale(4.5)"><rect width="6" height="6"></rect></g><g transform="translate(351,864) scale(4.5)"><rect width="6" height="6"></rect></g><g transform="translate(405,864) scale(4.5)"><rect width="6" height="6"></rect></g><g transform="translate(486,864) scale(4.5)"><rect width="6" height="6"></rect></g><g transform="translate(648,864) scale(4.5)"><rect width="6" height="6"></rect></g><g transform="translate(675,864) scale(4.5)"><rect width="6" height="6"></rect></g><g transform="translate(702,864) scale(4.5)"><rect width="6" height="6"></rect></g><g transform="translate(729,864) scale(4.5)"><rect width="6" height="6"></rect></g><g transform="translate(756,864) scale(4.5)"><rect width="6" height="6"></rect></g><g transform="translate(378,891) scale(4.5)"><rect width="6" height="6"></rect></g><g transform="translate(459,891) scale(4.5)"><rect width="6" height="6"></rect></g><g transform="translate(486,891) scale(4.5)"><rect width="6" height="6"></rect></g><g transform="translate(513,891) scale(4.5)"><rect width="6" height="6"></rect></g><g transform="translate(540,891) scale(4.5)"><rect width="6" height="6"></rect></g><g transform="translate(621,891) scale(4.5)"><rect width="6" height="6"></rect></g><g transform="translate(648,891) scale(4.5)"><rect width="6" height="6"></rect></g><g transform="translate(675,891) scale(4.5)"><rect width="6" height="6"></rect></g><g transform="translate(729,891) scale(4.5)"><rect width="6" height="6"></rect></g><g transform="translate(756,891) scale(4.5)"><rect width="6" height="6"></rect></g><g transform="translate(783,891) scale(4.5)"><rect width="6" height="6"></rect></g><g transform="translate(837,891) scale(4.5)"><rect width="6" height="6"></rect></g><g transform="translate(297,918) scale(4.5)"><rect width="6" height="6"></rect></g><g transform="translate(378,918) scale(4.5)"><rect width="6" height="6"></rect></g><g transform="translate(432,918) scale(4.5)"><rect width="6" height="6"></rect></g><g transform="translate(459,918) scale(4.5)"><rect width="6" height="6"></rect></g><g transform="translate(486,918) scale(4.5)"><rect width="6" height="6"></rect></g><g transform="translate(567,918) scale(4.5)"><rect width="6" height="6"></rect></g><g transform="translate(594,918) scale(4.5)"><rect width="6" height="6"></rect></g><g transform="translate(648,918) scale(4.5)"><rect width="6" height="6"></rect></g><g transform="translate(675,918) scale(4.5)"><rect width="6" height="6"></rect></g><g transform="translate(702,918) scale(4.5)"><rect width="6" height="6"></rect></g><g transform="translate(756,918) scale(4.5)"><rect width="6" height="6"></rect></g><g transform="translate(864,918) scale(4.5)"><rect width="6" height="6"></rect></g><g transform="translate(891,918) scale(4.5)"><rect width="6" height="6"></rect></g></g></mask></defs><rect width="999" height="999" fill="#ffffff" x="0" y="0"></rect><rect x="0" y="0" width="999" height="999" mask="url(#qrmask)" fill="#000000"></rect><g transform="translate(54,54)" fill="#000000"><g transform="scale(13.5)"><path d="M0,0v14h14V0H0z M12,12H2V2h10V12z"></path></g></g><g transform="translate(756,54)" fill="#000000"><g transform="scale(13.5)"><path d="M0,0v14h14V0H0z M12,12H2V2h10V12z"></path></g></g><g transform="translate(54,756)" fill="#000000"><g transform="scale(13.5)"><path d="M0,0v14h14V0H0z M12,12H2V2h10V12z"></path></g></g><g transform="translate(108,108)" fill="#000000"><g transform="scale(13.5)"><rect width="6" height="6"></rect></g></g><g transform="translate(810,108)" fill="#000000"><g transform="scale(13.5)"><rect width="6" height="6"></rect></g></g><g transform="translate(108,810)" fill="#000000"><g transform="scale(13.5)"><rect width="6" height="6"></rect></g></g></svg>